<svg xmlns="http://www.w3.org/2000/svg" xmlns:xlink="http://www.w3.org/1999/xlink" width="1024" viewBox="0 0 768 767.999994" height="1024" preserveAspectRatio="xMidYMid meet"><defs><clipPath id="bb86a665de"><path d="M 120.464844 159 L 567 159 L 567 605 L 120.464844 605 Z M 120.464844 159 " clip-rule="nonzero"></path></clipPath><clipPath id="069d4f6939"><path d="M 586 547 L 647.714844 547 L 647.714844 609 L 586 609 Z M 586 547 " clip-rule="nonzero"></path></clipPath></defs><rect x="-76.8" width="921.6" fill="#ffffff" y="-76.799999" height="921.599993" fill-opacity="1"></rect><rect x="-76.8" width="921.6" fill="#0a66c2" y="-76.799999" height="921.599993" fill-opacity="1"></rect><path fill="#ffffff" d="M 621.664062 579.664062 C 622.230469 579.667969 622.789062 579.617188 623.34375 579.507812 C 623.898438 579.398438 624.4375 579.230469 624.957031 579.011719 C 625.480469 578.792969 625.972656 578.519531 626.4375 578.199219 C 626.902344 577.878906 627.332031 577.511719 627.722656 577.105469 C 628.109375 576.695312 628.453125 576.25 628.753906 575.769531 C 629.050781 575.289062 629.296875 574.785156 629.496094 574.253906 C 629.6875 573.722656 629.828125 573.179688 629.910156 572.617188 C 629.992188 572.058594 630.019531 571.496094 629.988281 570.933594 C 629.988281 564.742188 626.253906 561.785156 618.589844 561.785156 L 606.207031 561.785156 L 606.207031 594.195312 L 610.863281 594.195312 L 610.863281 580.066406 L 616.585938 580.066406 L 616.71875 580.242188 L 625.597656 594.195312 L 630.578125 594.195312 L 621.023438 579.75 Z M 616.277344 576.414062 L 610.878906 576.414062 L 610.878906 565.457031 L 617.722656 565.457031 C 621.257812 565.457031 625.289062 566.035156 625.289062 570.664062 C 625.289062 575.988281 621.210938 576.414062 616.25 576.414062 " fill-opacity="1" fill-rule="nonzero"></path><g clip-path="url(#bb86a665de)"><path fill="#ffffff" d="M 500.1875 539.042969 L 434.15625 539.042969 L 434.15625 435.632812 C 434.15625 410.972656 433.714844 379.226562 399.808594 379.226562 C 365.417969 379.226562 360.15625 406.097656 360.15625 433.835938 L 360.15625 539.039062 L 294.121094 539.039062 L 294.121094 326.378906 L 357.515625 326.378906 L 357.515625 355.441406 L 358.402344 355.441406 C 359.980469 352.742188 361.734375 350.160156 363.660156 347.699219 C 365.589844 345.234375 367.671875 342.914062 369.914062 340.734375 C 372.152344 338.550781 374.53125 336.53125 377.046875 334.671875 C 379.558594 332.808594 382.1875 331.128906 384.929688 329.621094 C 387.667969 328.117188 390.5 326.800781 393.417969 325.679688 C 396.335938 324.554688 399.316406 323.632812 402.359375 322.914062 C 405.402344 322.191406 408.480469 321.679688 411.59375 321.375 C 414.703125 321.070312 417.824219 320.972656 420.949219 321.089844 C 487.875 321.089844 500.21875 365.113281 500.21875 422.382812 Z M 219.613281 297.3125 C 218.359375 297.3125 217.105469 297.25 215.855469 297.128906 C 214.609375 297.003906 213.367188 296.820312 212.136719 296.578125 C 210.90625 296.332031 209.691406 296.027344 208.488281 295.664062 C 207.289062 295.300781 206.109375 294.878906 204.949219 294.398438 C 203.789062 293.917969 202.65625 293.382812 201.546875 292.789062 C 200.441406 292.199219 199.367188 291.554688 198.320312 290.855469 C 197.277344 290.160156 196.269531 289.414062 195.300781 288.617188 C 194.332031 287.820312 193.402344 286.980469 192.515625 286.09375 C 191.625 285.207031 190.785156 284.277344 189.988281 283.304688 C 189.191406 282.335938 188.445312 281.328125 187.746094 280.285156 C 187.050781 279.242188 186.40625 278.167969 185.8125 277.0625 C 185.222656 275.953125 184.683594 274.820312 184.203125 273.660156 C 183.722656 272.503906 183.300781 271.324219 182.9375 270.121094 C 182.574219 268.921875 182.269531 267.703125 182.023438 266.472656 C 181.777344 265.242188 181.59375 264.003906 181.46875 262.753906 C 181.347656 261.503906 181.285156 260.253906 181.285156 258.996094 C 181.285156 257.742188 181.347656 256.492188 181.46875 255.242188 C 181.59375 253.992188 181.777344 252.753906 182.019531 251.523438 C 182.265625 250.289062 182.570312 249.074219 182.933594 247.875 C 183.296875 246.671875 183.71875 245.492188 184.199219 244.332031 C 184.679688 243.171875 185.214844 242.039062 185.808594 240.933594 C 186.398438 239.824219 187.042969 238.75 187.738281 237.707031 C 188.4375 236.664062 189.183594 235.65625 189.980469 234.6875 C 190.777344 233.714844 191.617188 232.785156 192.503906 231.898438 C 193.390625 231.011719 194.320312 230.167969 195.289062 229.375 C 196.261719 228.578125 197.265625 227.828125 198.308594 227.132812 C 199.355469 226.433594 200.429688 225.789062 201.535156 225.199219 C 202.640625 224.605469 203.773438 224.070312 204.933594 223.589844 C 206.09375 223.109375 207.273438 222.6875 208.476562 222.324219 C 209.675781 221.957031 210.890625 221.652344 212.121094 221.40625 C 213.355469 221.164062 214.59375 220.980469 215.84375 220.855469 C 217.09375 220.734375 218.34375 220.671875 219.597656 220.671875 C 220.855469 220.671875 222.105469 220.730469 223.355469 220.855469 C 224.605469 220.976562 225.84375 221.160156 227.074219 221.40625 C 228.304688 221.648438 229.523438 221.953125 230.722656 222.320312 C 231.925781 222.683594 233.105469 223.105469 234.265625 223.585938 C 235.425781 224.066406 236.558594 224.601562 237.664062 225.191406 C 238.769531 225.785156 239.847656 226.425781 240.890625 227.125 C 241.933594 227.820312 242.941406 228.570312 243.910156 229.363281 C 244.882812 230.160156 245.808594 231.003906 246.699219 231.890625 C 247.585938 232.777344 248.425781 233.707031 249.222656 234.675781 C 250.019531 235.644531 250.765625 236.652344 251.464844 237.695312 C 252.160156 238.738281 252.804688 239.8125 253.398438 240.921875 C 253.988281 242.027344 254.527344 243.160156 255.007812 244.320312 C 255.488281 245.480469 255.910156 246.660156 256.273438 247.859375 C 256.640625 249.0625 256.945312 250.277344 257.1875 251.507812 C 257.433594 252.738281 257.617188 253.980469 257.742188 255.226562 C 257.863281 256.476562 257.925781 257.730469 257.925781 258.984375 C 257.925781 260.238281 257.867188 261.492188 257.742188 262.738281 C 257.621094 263.988281 257.4375 265.230469 257.191406 266.460938 C 256.949219 267.691406 256.644531 268.90625 256.28125 270.109375 C 255.914062 271.308594 255.492188 272.488281 255.011719 273.648438 C 254.53125 274.808594 253.996094 275.941406 253.40625 277.050781 C 252.8125 278.15625 252.167969 279.230469 251.472656 280.273438 C 250.773438 281.320312 250.027344 282.324219 249.230469 283.296875 C 248.4375 284.265625 247.59375 285.195312 246.707031 286.082031 C 245.820312 286.96875 244.890625 287.8125 243.921875 288.609375 C 242.953125 289.40625 241.945312 290.152344 240.902344 290.847656 C 239.859375 291.546875 238.785156 292.191406 237.675781 292.785156 C 236.570312 293.375 235.4375 293.910156 234.277344 294.390625 C 233.117188 294.871094 231.9375 295.292969 230.738281 295.660156 C 229.535156 296.023438 228.320312 296.328125 227.089844 296.574219 C 225.859375 296.820312 224.617188 297.003906 223.367188 297.125 C 222.121094 297.25 220.867188 297.3125 219.613281 297.3125 M 252.628906 539.042969 L 186.527344 539.042969 L 186.527344 326.378906 L 252.628906 326.378906 Z M 533.109375 159.347656 L 153.34375 159.347656 C 152.28125 159.335938 151.21875 159.375 150.15625 159.46875 C 149.097656 159.5625 148.042969 159.703125 146.996094 159.902344 C 145.949219 160.097656 144.917969 160.34375 143.894531 160.640625 C 142.871094 160.9375 141.867188 161.285156 140.878906 161.679688 C 139.890625 162.078125 138.925781 162.519531 137.980469 163.011719 C 137.035156 163.5 136.117188 164.039062 135.226562 164.617188 C 134.332031 165.199219 133.472656 165.824219 132.640625 166.488281 C 131.808594 167.15625 131.015625 167.859375 130.253906 168.601562 C 129.492188 169.347656 128.769531 170.125 128.082031 170.941406 C 127.398438 171.757812 126.753906 172.601562 126.152344 173.480469 C 125.550781 174.359375 124.992188 175.265625 124.480469 176.195312 C 123.96875 177.128906 123.5 178.085938 123.082031 179.0625 C 122.664062 180.042969 122.292969 181.039062 121.972656 182.054688 C 121.652344 183.070312 121.378906 184.097656 121.160156 185.136719 C 120.9375 186.179688 120.769531 187.230469 120.652344 188.289062 C 120.535156 189.34375 120.472656 190.40625 120.457031 191.472656 L 120.457031 572.8125 C 120.46875 573.875 120.535156 574.9375 120.652344 575.996094 C 120.769531 577.054688 120.9375 578.105469 121.15625 579.148438 C 121.378906 580.191406 121.648438 581.21875 121.96875 582.234375 C 122.289062 583.25 122.660156 584.246094 123.078125 585.226562 C 123.496094 586.207031 123.964844 587.160156 124.476562 588.09375 C 124.988281 589.027344 125.546875 589.933594 126.148438 590.8125 C 126.75 591.691406 127.394531 592.539062 128.078125 593.355469 C 128.761719 594.171875 129.484375 594.949219 130.246094 595.695312 C 131.007812 596.441406 131.804688 597.144531 132.636719 597.8125 C 133.464844 598.476562 134.328125 599.101562 135.21875 599.683594 C 136.113281 600.265625 137.03125 600.804688 137.976562 601.292969 C 138.917969 601.785156 139.886719 602.230469 140.875 602.628906 C 141.863281 603.023438 142.867188 603.371094 143.890625 603.667969 C 144.914062 603.96875 145.949219 604.214844 146.996094 604.410156 C 148.042969 604.609375 149.09375 604.753906 150.15625 604.847656 C 151.214844 604.9375 152.28125 604.980469 153.34375 604.96875 L 533.109375 604.96875 C 534.175781 604.980469 535.242188 604.941406 536.304688 604.851562 C 537.367188 604.761719 538.425781 604.617188 539.472656 604.421875 C 540.523438 604.226562 541.558594 603.980469 542.585938 603.683594 C 543.609375 603.386719 544.617188 603.042969 545.609375 602.648438 C 546.601562 602.25 547.570312 601.808594 548.515625 601.316406 C 549.464844 600.828125 550.386719 600.289062 551.28125 599.707031 C 552.175781 599.128906 553.039062 598.503906 553.875 597.835938 C 554.707031 597.171875 555.507812 596.464844 556.269531 595.722656 C 557.035156 594.976562 557.761719 594.195312 558.449219 593.382812 C 559.136719 592.566406 559.785156 591.71875 560.390625 590.839844 C 560.992188 589.957031 561.554688 589.050781 562.070312 588.117188 C 562.585938 587.183594 563.054688 586.226562 563.476562 585.246094 C 563.898438 584.265625 564.269531 583.265625 564.59375 582.25 C 564.917969 581.234375 565.191406 580.203125 565.414062 579.160156 C 565.636719 578.113281 565.804688 577.0625 565.925781 576.003906 C 566.046875 574.941406 566.113281 573.878906 566.125 572.8125 L 566.125 191.445312 C 566.113281 190.378906 566.042969 189.3125 565.925781 188.253906 C 565.804688 187.195312 565.632812 186.140625 565.410156 185.097656 C 565.1875 184.054688 564.914062 183.027344 564.589844 182.011719 C 564.265625 180.992188 563.894531 179.996094 563.472656 179.015625 C 563.050781 178.035156 562.582031 177.078125 562.066406 176.144531 C 561.550781 175.210938 560.988281 174.308594 560.382812 173.429688 C 559.777344 172.550781 559.132812 171.703125 558.445312 170.886719 C 557.757812 170.074219 557.03125 169.292969 556.265625 168.550781 C 555.5 167.804688 554.703125 167.101562 553.867188 166.433594 C 553.035156 165.769531 552.171875 165.148438 551.277344 164.566406 C 550.382812 163.984375 549.460938 163.449219 548.511719 162.960938 C 547.566406 162.472656 546.597656 162.027344 545.605469 161.632812 C 544.613281 161.238281 543.605469 160.894531 542.582031 160.597656 C 541.558594 160.300781 540.519531 160.054688 539.472656 159.863281 C 538.421875 159.667969 537.367188 159.527344 536.304688 159.433594 C 535.242188 159.34375 534.175781 159.304688 533.109375 159.320312 " fill-opacity="1" fill-rule="nonzero"></path></g><g clip-path="url(#069d4f6939)"><path fill="#ffffff" d="M 616.84375 547.347656 C 616.183594 547.351562 615.523438 547.382812 614.863281 547.429688 C 614.203125 547.480469 613.546875 547.550781 612.890625 547.644531 C 612.234375 547.734375 611.585938 547.847656 610.9375 547.984375 C 610.289062 548.117188 609.648438 548.273438 609.011719 548.453125 C 608.375 548.628906 607.742188 548.824219 607.121094 549.042969 C 606.496094 549.261719 605.878906 549.5 605.269531 549.757812 C 604.660156 550.015625 604.0625 550.292969 603.472656 550.589844 C 602.878906 550.886719 602.300781 551.203125 601.730469 551.539062 C 601.160156 551.875 600.601562 552.226562 600.054688 552.601562 C 599.507812 552.972656 598.972656 553.359375 598.453125 553.765625 C 597.929688 554.171875 597.421875 554.597656 596.929688 555.035156 C 596.433594 555.476562 595.957031 555.929688 595.492188 556.402344 C 595.027344 556.871094 594.578125 557.359375 594.148438 557.859375 C 593.714844 558.359375 593.296875 558.871094 592.898438 559.398438 C 592.5 559.925781 592.121094 560.464844 591.757812 561.019531 C 591.390625 561.570312 591.046875 562.132812 590.71875 562.710938 C 590.394531 563.285156 590.085938 563.867188 589.796875 564.464844 C 589.507812 565.058594 589.238281 565.660156 588.988281 566.273438 C 588.742188 566.886719 588.511719 567.507812 588.300781 568.132812 C 588.09375 568.761719 587.90625 569.394531 587.738281 570.035156 C 587.570312 570.675781 587.421875 571.316406 587.296875 571.96875 C 587.171875 572.617188 587.070312 573.269531 586.984375 573.925781 C 586.902344 574.582031 586.84375 575.238281 586.800781 575.898438 C 586.761719 576.558594 586.742188 577.21875 586.746094 577.878906 C 586.75 578.542969 586.773438 579.203125 586.820312 579.863281 C 586.867188 580.523438 586.933594 581.179688 587.023438 581.835938 C 587.113281 582.488281 587.222656 583.140625 587.355469 583.789062 C 587.488281 584.4375 587.640625 585.078125 587.8125 585.71875 C 587.988281 586.355469 588.179688 586.988281 588.394531 587.613281 C 588.609375 588.238281 588.847656 588.855469 589.101562 589.464844 C 589.355469 590.074219 589.632812 590.675781 589.925781 591.269531 C 590.21875 591.859375 590.535156 592.441406 590.863281 593.011719 C 591.199219 593.585938 591.546875 594.144531 591.917969 594.695312 C 592.285156 595.242188 592.671875 595.777344 593.074219 596.300781 C 593.480469 596.824219 593.898438 597.335938 594.335938 597.832031 C 594.773438 598.328125 595.226562 598.808594 595.695312 599.273438 C 596.164062 599.742188 596.648438 600.191406 597.144531 600.625 C 597.644531 601.0625 598.15625 601.480469 598.683594 601.882812 C 599.207031 602.28125 599.746094 602.667969 600.296875 603.03125 C 600.847656 603.398438 601.410156 603.746094 601.980469 604.078125 C 602.554688 604.40625 603.136719 604.71875 603.730469 605.007812 C 604.324219 605.300781 604.925781 605.574219 605.539062 605.824219 C 606.148438 606.078125 606.769531 606.308594 607.394531 606.519531 C 608.023438 606.734375 608.652344 606.925781 609.292969 607.09375 C 609.933594 607.265625 610.574219 607.414062 611.226562 607.542969 C 611.875 607.671875 612.523438 607.78125 613.179688 607.867188 C 613.835938 607.953125 614.492188 608.015625 615.152344 608.058594 C 615.8125 608.101562 616.472656 608.125 617.132812 608.125 C 617.796875 608.125 618.457031 608.101562 619.117188 608.058594 C 619.777344 608.015625 620.433594 607.953125 621.089844 607.867188 C 621.746094 607.78125 622.398438 607.671875 623.046875 607.542969 C 623.695312 607.414062 624.339844 607.265625 624.976562 607.09375 C 625.617188 606.925781 626.25 606.734375 626.875 606.523438 C 627.503906 606.308594 628.121094 606.078125 628.730469 605.824219 C 629.339844 605.574219 629.945312 605.300781 630.539062 605.007812 C 631.132812 604.71875 631.714844 604.40625 632.285156 604.078125 C 632.859375 603.746094 633.421875 603.398438 633.972656 603.035156 C 634.523438 602.667969 635.0625 602.285156 635.585938 601.882812 C 636.109375 601.480469 636.621094 601.0625 637.121094 600.628906 C 637.621094 600.191406 638.101562 599.742188 638.570312 599.277344 C 639.039062 598.808594 639.492188 598.328125 639.929688 597.832031 C 640.367188 597.335938 640.789062 596.824219 641.191406 596.300781 C 641.597656 595.78125 641.984375 595.242188 642.351562 594.695312 C 642.71875 594.144531 643.070312 593.585938 643.402344 593.015625 C 643.734375 592.441406 644.046875 591.859375 644.34375 591.269531 C 644.636719 590.675781 644.914062 590.078125 645.167969 589.464844 C 645.425781 588.855469 645.660156 588.238281 645.875 587.613281 C 646.089844 586.988281 646.28125 586.355469 646.457031 585.71875 C 646.628906 585.082031 646.78125 584.4375 646.914062 583.789062 C 647.046875 583.140625 647.15625 582.488281 647.246094 581.835938 C 647.335938 581.179688 647.402344 580.523438 647.449219 579.863281 C 647.496094 579.203125 647.519531 578.542969 647.523438 577.882812 C 647.527344 577.21875 647.507812 576.558594 647.46875 575.898438 C 647.429688 575.238281 647.367188 574.582031 647.285156 573.925781 C 647.199219 573.269531 647.097656 572.617188 646.972656 571.96875 C 646.847656 571.320312 646.699219 570.675781 646.53125 570.035156 C 646.367188 569.394531 646.175781 568.761719 645.96875 568.132812 C 645.757812 567.507812 645.53125 566.886719 645.28125 566.273438 C 645.03125 565.664062 644.761719 565.058594 644.472656 564.464844 C 644.183594 563.871094 643.875 563.285156 643.550781 562.710938 C 643.222656 562.136719 642.878906 561.570312 642.511719 561.019531 C 642.148438 560.46875 641.769531 559.925781 641.371094 559.398438 C 640.96875 558.871094 640.554688 558.359375 640.121094 557.859375 C 639.691406 557.359375 639.242188 556.875 638.777344 556.402344 C 638.3125 555.933594 637.835938 555.476562 637.339844 555.035156 C 636.847656 554.597656 636.339844 554.175781 635.816406 553.769531 C 635.296875 553.359375 634.761719 552.972656 634.214844 552.601562 C 633.667969 552.230469 633.109375 551.875 632.539062 551.539062 C 631.96875 551.203125 631.390625 550.886719 630.796875 550.589844 C 630.207031 550.292969 629.609375 550.015625 629 549.757812 C 628.390625 549.5 627.773438 549.261719 627.152344 549.042969 C 626.527344 548.824219 625.894531 548.628906 625.257812 548.453125 C 624.621094 548.273438 623.980469 548.117188 623.332031 547.984375 C 622.6875 547.847656 622.035156 547.734375 621.378906 547.644531 C 620.726562 547.550781 620.066406 547.480469 619.410156 547.429688 C 618.75 547.382812 618.089844 547.351562 617.425781 547.347656 L 616.84375 547.347656 M 616.84375 604.644531 C 615.96875 604.660156 615.097656 604.632812 614.230469 604.558594 C 613.359375 604.488281 612.492188 604.375 611.636719 604.21875 C 610.777344 604.0625 609.925781 603.867188 609.089844 603.625 C 608.25 603.386719 607.425781 603.105469 606.613281 602.785156 C 605.800781 602.464844 605.007812 602.105469 604.230469 601.707031 C 603.453125 601.308594 602.699219 600.875 601.964844 600.402344 C 601.230469 599.929688 600.523438 599.421875 599.839844 598.878906 C 599.15625 598.335938 598.5 597.761719 597.871094 597.15625 C 597.246094 596.546875 596.648438 595.910156 596.085938 595.246094 C 595.519531 594.582031 594.988281 593.890625 594.492188 593.171875 C 593.996094 592.453125 593.535156 591.714844 593.109375 590.953125 C 592.683594 590.1875 592.300781 589.40625 591.953125 588.605469 C 591.605469 587.804688 591.296875 586.992188 591.03125 586.160156 C 590.761719 585.328125 590.539062 584.488281 590.351562 583.632812 C 590.167969 582.78125 590.027344 581.921875 589.925781 581.054688 C 589.828125 580.1875 589.769531 579.316406 589.753906 578.445312 C 589.742188 577.570312 589.769531 576.699219 589.839844 575.832031 C 589.910156 574.960938 590.023438 574.097656 590.179688 573.238281 C 590.335938 572.378906 590.535156 571.53125 590.773438 570.691406 C 591.011719 569.851562 591.292969 569.027344 591.613281 568.214844 C 591.933594 567.402344 592.292969 566.609375 592.691406 565.832031 C 593.089844 565.054688 593.527344 564.300781 594 563.566406 C 594.472656 562.832031 594.980469 562.125 595.523438 561.441406 C 596.0625 560.757812 596.640625 560.101562 597.246094 559.476562 C 597.851562 558.847656 598.488281 558.25 599.152344 557.6875 C 599.820312 557.121094 600.511719 556.589844 601.226562 556.09375 C 601.945312 555.597656 602.6875 555.136719 603.449219 554.710938 C 604.210938 554.289062 604.992188 553.902344 605.792969 553.554688 C 606.59375 553.207031 607.410156 552.902344 608.238281 552.632812 C 609.070312 552.367188 609.910156 552.140625 610.765625 551.957031 C 611.617188 551.769531 612.480469 551.628906 613.347656 551.527344 C 614.214844 551.429688 615.082031 551.371094 615.957031 551.355469 C 616.828125 551.34375 617.699219 551.371094 618.566406 551.441406 C 619.4375 551.511719 620.304688 551.625 621.160156 551.78125 C 622.019531 551.9375 622.867188 552.136719 623.707031 552.375 C 624.546875 552.613281 625.371094 552.894531 626.183594 553.214844 C 626.996094 553.535156 627.789062 553.894531 628.566406 554.292969 C 629.34375 554.691406 630.097656 555.128906 630.832031 555.601562 C 631.5625 556.074219 632.273438 556.582031 632.957031 557.125 C 633.640625 557.664062 634.296875 558.242188 634.925781 558.847656 C 635.550781 559.453125 636.148438 560.089844 636.710938 560.753906 C 637.277344 561.421875 637.808594 562.113281 638.304688 562.828125 C 638.800781 563.546875 639.261719 564.289062 639.6875 565.050781 C 640.113281 565.8125 640.496094 566.59375 640.84375 567.394531 C 641.191406 568.195312 641.5 569.011719 641.765625 569.84375 C 642.035156 570.671875 642.257812 571.515625 642.441406 572.367188 C 642.628906 573.222656 642.769531 574.082031 642.871094 574.949219 C 642.96875 575.816406 643.027344 576.683594 643.042969 577.558594 C 643.042969 577.707031 643.042969 577.851562 643.042969 578.003906 C 643.058594 578.859375 643.035156 579.710938 642.972656 580.5625 C 642.90625 581.414062 642.800781 582.257812 642.652344 583.101562 C 642.5 583.941406 642.3125 584.773438 642.082031 585.59375 C 641.851562 586.417969 641.582031 587.226562 641.273438 588.023438 C 640.960938 588.816406 640.613281 589.597656 640.226562 590.359375 C 639.84375 591.117188 639.417969 591.859375 638.960938 592.578125 C 638.5 593.300781 638.007812 593.996094 637.480469 594.667969 C 636.953125 595.339844 636.394531 595.984375 635.804688 596.597656 C 635.214844 597.214844 634.59375 597.800781 633.945312 598.359375 C 633.296875 598.914062 632.621094 599.4375 631.921875 599.925781 C 631.222656 600.414062 630.5 600.871094 629.757812 601.289062 C 629.011719 601.707031 628.25 602.089844 627.46875 602.429688 C 626.6875 602.773438 625.890625 603.078125 625.078125 603.34375 C 624.269531 603.609375 623.445312 603.835938 622.609375 604.019531 C 621.777344 604.203125 620.9375 604.347656 620.089844 604.449219 C 619.242188 604.554688 618.390625 604.613281 617.535156 604.632812 L 616.847656 604.632812 " fill-opacity="1" fill-rule="nonzero"></path></g></svg>